<mxfile host="app.diagrams.net" modified="2024-02-23T07:11:41.060Z" agent="Mozilla/5.0 (Windows NT 10.0; Win64; x64) AppleWebKit/537.36 (KHTML, like Gecko) Chrome/121.0.0.0 Safari/537.36" etag="Hkj5pbTX_d_G-q0GpRU1" version="23.0.2" type="github">
  <diagram name="Page-1" id="b520641d-4fe3-3701-9064-5fc419738815">
    <mxGraphModel dx="1434" dy="746" grid="1" gridSize="10" guides="1" tooltips="1" connect="1" arrows="1" fold="1" page="1" pageScale="1" pageWidth="1100" pageHeight="850" background="none" math="0" shadow="0">
      <root>
        <mxCell id="0" />
        <mxCell id="1" parent="0" />
        <mxCell id="8MBp1-SmucgDKLfqR2da-100" style="edgeStyle=orthogonalEdgeStyle;rounded=0;orthogonalLoop=1;jettySize=auto;html=1;exitX=1;exitY=0.25;exitDx=0;exitDy=0;entryX=0.75;entryY=0;entryDx=0;entryDy=0;" edge="1" parent="1" source="21ea969265ad0168-6" target="8MBp1-SmucgDKLfqR2da-69">
          <mxGeometry relative="1" as="geometry" />
        </mxCell>
        <mxCell id="8MBp1-SmucgDKLfqR2da-101" value="associtaion" style="edgeLabel;html=1;align=center;verticalAlign=middle;resizable=0;points=[];" vertex="1" connectable="0" parent="8MBp1-SmucgDKLfqR2da-100">
          <mxGeometry x="-0.4528" relative="1" as="geometry">
            <mxPoint as="offset" />
          </mxGeometry>
        </mxCell>
        <mxCell id="21ea969265ad0168-6" value="mon_truck" style="swimlane;html=1;fontStyle=0;childLayout=stackLayout;horizontal=1;startSize=26;fillColor=#e0e0e0;horizontalStack=0;resizeParent=1;resizeLast=0;collapsible=1;marginBottom=0;swimlaneFillColor=#ffffff;align=center;rounded=1;shadow=0;comic=0;labelBackgroundColor=none;strokeWidth=1;fontFamily=Verdana;fontSize=12" parent="1" vertex="1">
          <mxGeometry x="420" y="30" width="140" height="80" as="geometry" />
        </mxCell>
        <mxCell id="8MBp1-SmucgDKLfqR2da-1" value="get(truck_id)" style="text;strokeColor=none;align=center;fillColor=none;html=1;verticalAlign=middle;whiteSpace=wrap;rounded=0;" vertex="1" parent="21ea969265ad0168-6">
          <mxGeometry y="26" width="140" height="54" as="geometry" />
        </mxCell>
        <mxCell id="8MBp1-SmucgDKLfqR2da-2" value="sys_attachment" style="swimlane;html=1;fontStyle=0;childLayout=stackLayout;horizontal=1;startSize=26;fillColor=#e0e0e0;horizontalStack=0;resizeParent=1;resizeLast=0;collapsible=1;marginBottom=0;swimlaneFillColor=#ffffff;align=center;rounded=1;shadow=0;comic=0;labelBackgroundColor=none;strokeWidth=1;fontFamily=Verdana;fontSize=12" vertex="1" parent="1">
          <mxGeometry x="20" y="425" width="140" height="80" as="geometry" />
        </mxCell>
        <mxCell id="8MBp1-SmucgDKLfqR2da-3" value="findListByRelatedId(&lt;span style=&quot;background-color: initial;&quot;&gt;)&lt;/span&gt;" style="text;strokeColor=none;align=center;fillColor=none;html=1;verticalAlign=middle;whiteSpace=wrap;rounded=0;" vertex="1" parent="8MBp1-SmucgDKLfqR2da-2">
          <mxGeometry y="26" width="140" height="54" as="geometry" />
        </mxCell>
        <mxCell id="8MBp1-SmucgDKLfqR2da-4" value="mon_truck_driver" style="swimlane;html=1;fontStyle=0;childLayout=stackLayout;horizontal=1;startSize=26;fillColor=#e0e0e0;horizontalStack=0;resizeParent=1;resizeLast=0;collapsible=1;marginBottom=0;swimlaneFillColor=#ffffff;align=center;rounded=1;shadow=0;comic=0;labelBackgroundColor=none;strokeWidth=1;fontFamily=Verdana;fontSize=12" vertex="1" parent="1">
          <mxGeometry x="410" y="280" width="140" height="80" as="geometry" />
        </mxCell>
        <mxCell id="8MBp1-SmucgDKLfqR2da-5" value="findDriverListByTruck(truck_id&lt;span style=&quot;background-color: initial;&quot;&gt;)&lt;br&gt;&lt;br&gt;&lt;/span&gt;" style="text;strokeColor=none;align=center;fillColor=none;html=1;verticalAlign=middle;whiteSpace=wrap;rounded=0;" vertex="1" parent="8MBp1-SmucgDKLfqR2da-4">
          <mxGeometry y="26" width="140" height="54" as="geometry" />
        </mxCell>
        <mxCell id="8MBp1-SmucgDKLfqR2da-10" value="mon_driver" style="swimlane;html=1;fontStyle=0;childLayout=stackLayout;horizontal=1;startSize=26;fillColor=#e0e0e0;horizontalStack=0;resizeParent=1;resizeLast=0;collapsible=1;marginBottom=0;swimlaneFillColor=#ffffff;align=center;rounded=1;shadow=0;comic=0;labelBackgroundColor=none;strokeWidth=1;fontFamily=Verdana;fontSize=12" vertex="1" parent="1">
          <mxGeometry x="230" y="420" width="140" height="80" as="geometry" />
        </mxCell>
        <mxCell id="8MBp1-SmucgDKLfqR2da-11" value="&lt;span style=&quot;background-color: initial;&quot;&gt;&lt;br&gt;&lt;/span&gt;" style="text;strokeColor=none;align=center;fillColor=none;html=1;verticalAlign=middle;whiteSpace=wrap;rounded=0;" vertex="1" parent="8MBp1-SmucgDKLfqR2da-10">
          <mxGeometry y="26" width="140" height="54" as="geometry" />
        </mxCell>
        <mxCell id="8MBp1-SmucgDKLfqR2da-19" style="edgeStyle=orthogonalEdgeStyle;rounded=0;orthogonalLoop=1;jettySize=auto;html=1;exitX=0;exitY=0.25;exitDx=0;exitDy=0;entryX=0.5;entryY=0;entryDx=0;entryDy=0;" edge="1" parent="1" source="8MBp1-SmucgDKLfqR2da-1" target="8MBp1-SmucgDKLfqR2da-2">
          <mxGeometry relative="1" as="geometry" />
        </mxCell>
        <mxCell id="8MBp1-SmucgDKLfqR2da-21" value="collection(truck_id)" style="edgeLabel;html=1;align=center;verticalAlign=middle;resizable=0;points=[];" vertex="1" connectable="0" parent="8MBp1-SmucgDKLfqR2da-19">
          <mxGeometry x="-0.1128" y="-1" relative="1" as="geometry">
            <mxPoint as="offset" />
          </mxGeometry>
        </mxCell>
        <mxCell id="8MBp1-SmucgDKLfqR2da-22" style="edgeStyle=orthogonalEdgeStyle;rounded=0;orthogonalLoop=1;jettySize=auto;html=1;exitX=-0.014;exitY=0.13;exitDx=0;exitDy=0;exitPerimeter=0;" edge="1" parent="1" source="8MBp1-SmucgDKLfqR2da-5" target="8MBp1-SmucgDKLfqR2da-3">
          <mxGeometry relative="1" as="geometry" />
        </mxCell>
        <mxCell id="8MBp1-SmucgDKLfqR2da-23" value="collection(driver_id)" style="edgeLabel;html=1;align=center;verticalAlign=middle;resizable=0;points=[];" vertex="1" connectable="0" parent="8MBp1-SmucgDKLfqR2da-22">
          <mxGeometry x="0.3273" y="-1" relative="1" as="geometry">
            <mxPoint x="20" y="1" as="offset" />
          </mxGeometry>
        </mxCell>
        <mxCell id="8MBp1-SmucgDKLfqR2da-34" style="edgeStyle=orthogonalEdgeStyle;rounded=0;orthogonalLoop=1;jettySize=auto;html=1;exitX=0.5;exitY=0;exitDx=0;exitDy=0;entryX=0.5;entryY=1;entryDx=0;entryDy=0;" edge="1" parent="1" source="8MBp1-SmucgDKLfqR2da-4" target="8MBp1-SmucgDKLfqR2da-1">
          <mxGeometry relative="1" as="geometry" />
        </mxCell>
        <mxCell id="8MBp1-SmucgDKLfqR2da-35" value="association" style="edgeLabel;html=1;align=center;verticalAlign=middle;resizable=0;points=[];" vertex="1" connectable="0" parent="8MBp1-SmucgDKLfqR2da-34">
          <mxGeometry x="0.0682" y="-1" relative="1" as="geometry">
            <mxPoint as="offset" />
          </mxGeometry>
        </mxCell>
        <mxCell id="8MBp1-SmucgDKLfqR2da-36" value="sys_dict" style="swimlane;html=1;fontStyle=0;childLayout=stackLayout;horizontal=1;startSize=26;fillColor=#e0e0e0;horizontalStack=0;resizeParent=1;resizeLast=0;collapsible=1;marginBottom=0;swimlaneFillColor=#ffffff;align=center;rounded=1;shadow=0;comic=0;labelBackgroundColor=none;strokeWidth=1;fontFamily=Verdana;fontSize=12" vertex="1" parent="1">
          <mxGeometry x="610" y="420" width="140" height="80" as="geometry" />
        </mxCell>
        <mxCell id="8MBp1-SmucgDKLfqR2da-37" value="&lt;span style=&quot;background-color: initial;&quot;&gt;getPersonnelByDicLabel()&lt;br&gt;getSafeByDicLabel()&lt;br&gt;&lt;/span&gt;" style="text;strokeColor=none;align=center;fillColor=none;html=1;verticalAlign=middle;whiteSpace=wrap;rounded=0;" vertex="1" parent="8MBp1-SmucgDKLfqR2da-36">
          <mxGeometry y="26" width="140" height="54" as="geometry" />
        </mxCell>
        <mxCell id="8MBp1-SmucgDKLfqR2da-45" style="edgeStyle=orthogonalEdgeStyle;rounded=0;orthogonalLoop=1;jettySize=auto;html=1;exitX=1;exitY=0.5;exitDx=0;exitDy=0;entryX=0.5;entryY=0;entryDx=0;entryDy=0;" edge="1" parent="1" source="8MBp1-SmucgDKLfqR2da-5" target="8MBp1-SmucgDKLfqR2da-36">
          <mxGeometry relative="1" as="geometry" />
        </mxCell>
        <mxCell id="8MBp1-SmucgDKLfqR2da-46" value="association" style="edgeLabel;html=1;align=center;verticalAlign=middle;resizable=0;points=[];" vertex="1" connectable="0" parent="8MBp1-SmucgDKLfqR2da-45">
          <mxGeometry x="-0.1936" y="1" relative="1" as="geometry">
            <mxPoint as="offset" />
          </mxGeometry>
        </mxCell>
        <mxCell id="8MBp1-SmucgDKLfqR2da-47" value="sys_dict" style="swimlane;html=1;fontStyle=0;childLayout=stackLayout;horizontal=1;startSize=26;fillColor=#e0e0e0;horizontalStack=0;resizeParent=1;resizeLast=0;collapsible=1;marginBottom=0;swimlaneFillColor=#ffffff;align=center;rounded=1;shadow=0;comic=0;labelBackgroundColor=none;strokeWidth=1;fontFamily=Verdana;fontSize=12" vertex="1" parent="1">
          <mxGeometry x="820" y="190" width="170" height="100" as="geometry" />
        </mxCell>
        <mxCell id="8MBp1-SmucgDKLfqR2da-48" value="&lt;span style=&quot;background-color: initial;&quot;&gt;getTranScope(tran_scope)&lt;br&gt;&lt;div&gt;getPlateColor(plate_color)&lt;/div&gt;&lt;div&gt;getTruckType(truck_type)&lt;/div&gt;&lt;div&gt;getCompanyDic(company_id)&lt;/div&gt;&lt;/span&gt;" style="text;strokeColor=none;align=center;fillColor=none;html=1;verticalAlign=middle;whiteSpace=wrap;rounded=0;" vertex="1" parent="8MBp1-SmucgDKLfqR2da-47">
          <mxGeometry y="26" width="170" height="54" as="geometry" />
        </mxCell>
        <mxCell id="8MBp1-SmucgDKLfqR2da-49" style="edgeStyle=orthogonalEdgeStyle;rounded=0;orthogonalLoop=1;jettySize=auto;html=1;exitX=1;exitY=0.5;exitDx=0;exitDy=0;entryX=0.5;entryY=0;entryDx=0;entryDy=0;" edge="1" parent="1" source="8MBp1-SmucgDKLfqR2da-1" target="8MBp1-SmucgDKLfqR2da-47">
          <mxGeometry relative="1" as="geometry" />
        </mxCell>
        <mxCell id="8MBp1-SmucgDKLfqR2da-50" value="association" style="edgeLabel;html=1;align=center;verticalAlign=middle;resizable=0;points=[];" vertex="1" connectable="0" parent="8MBp1-SmucgDKLfqR2da-49">
          <mxGeometry x="-0.2048" y="3" relative="1" as="geometry">
            <mxPoint as="offset" />
          </mxGeometry>
        </mxCell>
        <mxCell id="8MBp1-SmucgDKLfqR2da-55" value="mon_agent" style="swimlane;html=1;fontStyle=0;childLayout=stackLayout;horizontal=1;startSize=26;fillColor=#e0e0e0;horizontalStack=0;resizeParent=1;resizeLast=0;collapsible=1;marginBottom=0;swimlaneFillColor=#ffffff;align=center;rounded=1;shadow=0;comic=0;labelBackgroundColor=none;strokeWidth=1;fontFamily=Verdana;fontSize=12" vertex="1" parent="1">
          <mxGeometry x="630" y="200" width="140" height="80" as="geometry" />
        </mxCell>
        <mxCell id="8MBp1-SmucgDKLfqR2da-56" value="&lt;span style=&quot;background-color: initial;&quot;&gt;get(agent_id)&lt;br&gt;getSimpleAgent(agent_id)&lt;br&gt;&lt;/span&gt;" style="text;strokeColor=none;align=center;fillColor=none;html=1;verticalAlign=middle;whiteSpace=wrap;rounded=0;" vertex="1" parent="8MBp1-SmucgDKLfqR2da-55">
          <mxGeometry y="26" width="140" height="54" as="geometry" />
        </mxCell>
        <mxCell id="8MBp1-SmucgDKLfqR2da-57" style="edgeStyle=orthogonalEdgeStyle;rounded=0;orthogonalLoop=1;jettySize=auto;html=1;exitX=0;exitY=0.25;exitDx=0;exitDy=0;entryX=0.943;entryY=1.037;entryDx=0;entryDy=0;entryPerimeter=0;" edge="1" parent="1" source="8MBp1-SmucgDKLfqR2da-56" target="8MBp1-SmucgDKLfqR2da-1">
          <mxGeometry relative="1" as="geometry" />
        </mxCell>
        <mxCell id="8MBp1-SmucgDKLfqR2da-59" value="association" style="edgeLabel;html=1;align=center;verticalAlign=middle;resizable=0;points=[];" vertex="1" connectable="0" parent="8MBp1-SmucgDKLfqR2da-57">
          <mxGeometry x="0.2506" y="-1" relative="1" as="geometry">
            <mxPoint as="offset" />
          </mxGeometry>
        </mxCell>
        <mxCell id="8MBp1-SmucgDKLfqR2da-58" style="edgeStyle=orthogonalEdgeStyle;rounded=0;orthogonalLoop=1;jettySize=auto;html=1;exitX=0;exitY=0.5;exitDx=0;exitDy=0;entryX=1;entryY=0.25;entryDx=0;entryDy=0;" edge="1" parent="1" source="8MBp1-SmucgDKLfqR2da-56" target="8MBp1-SmucgDKLfqR2da-4">
          <mxGeometry relative="1" as="geometry" />
        </mxCell>
        <mxCell id="8MBp1-SmucgDKLfqR2da-60" value="association" style="edgeLabel;html=1;align=center;verticalAlign=middle;resizable=0;points=[];" vertex="1" connectable="0" parent="8MBp1-SmucgDKLfqR2da-58">
          <mxGeometry x="0.0394" y="-2" relative="1" as="geometry">
            <mxPoint as="offset" />
          </mxGeometry>
        </mxCell>
        <mxCell id="8MBp1-SmucgDKLfqR2da-61" value="base_area" style="swimlane;html=1;fontStyle=0;childLayout=stackLayout;horizontal=1;startSize=26;fillColor=#e0e0e0;horizontalStack=0;resizeParent=1;resizeLast=0;collapsible=1;marginBottom=0;swimlaneFillColor=#ffffff;align=center;rounded=1;shadow=0;comic=0;labelBackgroundColor=none;strokeWidth=1;fontFamily=Verdana;fontSize=12" vertex="1" parent="1">
          <mxGeometry x="180" y="130" width="140" height="80" as="geometry" />
        </mxCell>
        <mxCell id="8MBp1-SmucgDKLfqR2da-62" value="&lt;span style=&quot;background-color: initial;&quot;&gt;get(area_id)&lt;br&gt;&lt;/span&gt;" style="text;strokeColor=none;align=center;fillColor=none;html=1;verticalAlign=middle;whiteSpace=wrap;rounded=0;" vertex="1" parent="8MBp1-SmucgDKLfqR2da-61">
          <mxGeometry y="26" width="140" height="54" as="geometry" />
        </mxCell>
        <mxCell id="8MBp1-SmucgDKLfqR2da-63" style="edgeStyle=orthogonalEdgeStyle;rounded=0;orthogonalLoop=1;jettySize=auto;html=1;exitX=0;exitY=0.75;exitDx=0;exitDy=0;entryX=0.5;entryY=0;entryDx=0;entryDy=0;" edge="1" parent="1" source="8MBp1-SmucgDKLfqR2da-5" target="8MBp1-SmucgDKLfqR2da-10">
          <mxGeometry relative="1" as="geometry" />
        </mxCell>
        <mxCell id="8MBp1-SmucgDKLfqR2da-64" value="left join" style="edgeLabel;html=1;align=center;verticalAlign=middle;resizable=0;points=[];" vertex="1" connectable="0" parent="8MBp1-SmucgDKLfqR2da-63">
          <mxGeometry x="0.4441" y="1" relative="1" as="geometry">
            <mxPoint y="1" as="offset" />
          </mxGeometry>
        </mxCell>
        <mxCell id="8MBp1-SmucgDKLfqR2da-65" style="edgeStyle=orthogonalEdgeStyle;rounded=0;orthogonalLoop=1;jettySize=auto;html=1;exitX=0.5;exitY=1;exitDx=0;exitDy=0;entryX=0;entryY=0;entryDx=0;entryDy=0;" edge="1" parent="1" source="8MBp1-SmucgDKLfqR2da-62" target="8MBp1-SmucgDKLfqR2da-4">
          <mxGeometry relative="1" as="geometry" />
        </mxCell>
        <mxCell id="8MBp1-SmucgDKLfqR2da-68" value="association" style="edgeLabel;html=1;align=center;verticalAlign=middle;resizable=0;points=[];" vertex="1" connectable="0" parent="8MBp1-SmucgDKLfqR2da-65">
          <mxGeometry x="-0.1217" y="-3" relative="1" as="geometry">
            <mxPoint as="offset" />
          </mxGeometry>
        </mxCell>
        <mxCell id="8MBp1-SmucgDKLfqR2da-66" style="edgeStyle=orthogonalEdgeStyle;rounded=0;orthogonalLoop=1;jettySize=auto;html=1;exitX=0;exitY=1;exitDx=0;exitDy=0;entryX=0.5;entryY=0;entryDx=0;entryDy=0;" edge="1" parent="1" source="8MBp1-SmucgDKLfqR2da-1" target="8MBp1-SmucgDKLfqR2da-61">
          <mxGeometry relative="1" as="geometry" />
        </mxCell>
        <mxCell id="8MBp1-SmucgDKLfqR2da-67" value="association" style="edgeLabel;html=1;align=center;verticalAlign=middle;resizable=0;points=[];" vertex="1" connectable="0" parent="8MBp1-SmucgDKLfqR2da-66">
          <mxGeometry x="0.2957" y="-1" relative="1" as="geometry">
            <mxPoint as="offset" />
          </mxGeometry>
        </mxCell>
        <mxCell id="8MBp1-SmucgDKLfqR2da-69" value="mon_tpayment_sum" style="swimlane;html=1;fontStyle=0;childLayout=stackLayout;horizontal=1;startSize=26;fillColor=#e0e0e0;horizontalStack=0;resizeParent=1;resizeLast=0;collapsible=1;marginBottom=0;swimlaneFillColor=#ffffff;align=center;rounded=1;shadow=0;comic=0;labelBackgroundColor=none;strokeWidth=1;fontFamily=Verdana;fontSize=12" vertex="1" parent="1">
          <mxGeometry x="900" y="420" width="140" height="80" as="geometry" />
        </mxCell>
        <mxCell id="8MBp1-SmucgDKLfqR2da-70" value="&lt;span style=&quot;background-color: initial;&quot;&gt;get(tpayment_sum_id)&lt;br&gt;&lt;/span&gt;" style="text;strokeColor=none;align=center;fillColor=none;html=1;verticalAlign=middle;whiteSpace=wrap;rounded=0;" vertex="1" parent="8MBp1-SmucgDKLfqR2da-69">
          <mxGeometry y="26" width="140" height="54" as="geometry" />
        </mxCell>
        <mxCell id="8MBp1-SmucgDKLfqR2da-71" value="sys_user" style="swimlane;html=1;fontStyle=0;childLayout=stackLayout;horizontal=1;startSize=26;fillColor=#e0e0e0;horizontalStack=0;resizeParent=1;resizeLast=0;collapsible=1;marginBottom=0;swimlaneFillColor=#ffffff;align=center;rounded=1;shadow=0;comic=0;labelBackgroundColor=none;strokeWidth=1;fontFamily=Verdana;fontSize=12" vertex="1" parent="1">
          <mxGeometry x="770" y="560" width="140" height="80" as="geometry" />
        </mxCell>
        <mxCell id="8MBp1-SmucgDKLfqR2da-72" value="&lt;span style=&quot;background-color: initial;&quot;&gt;get(user_id)&lt;br&gt;&lt;/span&gt;" style="text;strokeColor=none;align=center;fillColor=none;html=1;verticalAlign=middle;whiteSpace=wrap;rounded=0;" vertex="1" parent="8MBp1-SmucgDKLfqR2da-71">
          <mxGeometry y="26" width="140" height="54" as="geometry" />
        </mxCell>
        <mxCell id="8MBp1-SmucgDKLfqR2da-73" value="base_area" style="swimlane;html=1;fontStyle=0;childLayout=stackLayout;horizontal=1;startSize=26;fillColor=#e0e0e0;horizontalStack=0;resizeParent=1;resizeLast=0;collapsible=1;marginBottom=0;swimlaneFillColor=#ffffff;align=center;rounded=1;shadow=0;comic=0;labelBackgroundColor=none;strokeWidth=1;fontFamily=Verdana;fontSize=12" vertex="1" parent="1">
          <mxGeometry x="610" y="670" width="140" height="80" as="geometry" />
        </mxCell>
        <mxCell id="8MBp1-SmucgDKLfqR2da-74" value="&lt;span style=&quot;background-color: initial;&quot;&gt;get(area_id)&lt;br&gt;&lt;/span&gt;" style="text;strokeColor=none;align=center;fillColor=none;html=1;verticalAlign=middle;whiteSpace=wrap;rounded=0;" vertex="1" parent="8MBp1-SmucgDKLfqR2da-73">
          <mxGeometry y="26" width="140" height="54" as="geometry" />
        </mxCell>
        <mxCell id="8MBp1-SmucgDKLfqR2da-75" value="mon_install_user" style="swimlane;html=1;fontStyle=0;childLayout=stackLayout;horizontal=1;startSize=26;fillColor=#e0e0e0;horizontalStack=0;resizeParent=1;resizeLast=0;collapsible=1;marginBottom=0;swimlaneFillColor=#ffffff;align=center;rounded=1;shadow=0;comic=0;labelBackgroundColor=none;strokeWidth=1;fontFamily=Verdana;fontSize=12" vertex="1" parent="1">
          <mxGeometry x="780" y="670" width="140" height="80" as="geometry" />
        </mxCell>
        <mxCell id="8MBp1-SmucgDKLfqR2da-76" value="&lt;span style=&quot;background-color: initial;&quot;&gt;getSimple()&lt;br&gt;&lt;/span&gt;" style="text;strokeColor=none;align=center;fillColor=none;html=1;verticalAlign=middle;whiteSpace=wrap;rounded=0;" vertex="1" parent="8MBp1-SmucgDKLfqR2da-75">
          <mxGeometry y="26" width="140" height="50" as="geometry" />
        </mxCell>
        <mxCell id="8MBp1-SmucgDKLfqR2da-78" style="edgeStyle=orthogonalEdgeStyle;rounded=0;orthogonalLoop=1;jettySize=auto;html=1;exitX=0.5;exitY=1;exitDx=0;exitDy=0;entryX=0.5;entryY=1;entryDx=0;entryDy=0;" edge="1" parent="1" source="8MBp1-SmucgDKLfqR2da-76" target="8MBp1-SmucgDKLfqR2da-74">
          <mxGeometry relative="1" as="geometry" />
        </mxCell>
        <mxCell id="8MBp1-SmucgDKLfqR2da-79" value="association" style="edgeLabel;html=1;align=center;verticalAlign=middle;resizable=0;points=[];" vertex="1" connectable="0" parent="8MBp1-SmucgDKLfqR2da-78">
          <mxGeometry x="0.0187" y="1" relative="1" as="geometry">
            <mxPoint as="offset" />
          </mxGeometry>
        </mxCell>
        <mxCell id="8MBp1-SmucgDKLfqR2da-80" style="edgeStyle=orthogonalEdgeStyle;rounded=0;orthogonalLoop=1;jettySize=auto;html=1;exitX=0;exitY=0.25;exitDx=0;exitDy=0;entryX=0.5;entryY=0;entryDx=0;entryDy=0;" edge="1" parent="1" source="8MBp1-SmucgDKLfqR2da-72" target="8MBp1-SmucgDKLfqR2da-73">
          <mxGeometry relative="1" as="geometry" />
        </mxCell>
        <mxCell id="8MBp1-SmucgDKLfqR2da-81" value="association" style="edgeLabel;html=1;align=center;verticalAlign=middle;resizable=0;points=[];" vertex="1" connectable="0" parent="8MBp1-SmucgDKLfqR2da-80">
          <mxGeometry x="0.5016" y="2" relative="1" as="geometry">
            <mxPoint as="offset" />
          </mxGeometry>
        </mxCell>
        <mxCell id="8MBp1-SmucgDKLfqR2da-82" value="sys_auth" style="swimlane;html=1;fontStyle=0;childLayout=stackLayout;horizontal=1;startSize=26;fillColor=#e0e0e0;horizontalStack=0;resizeParent=1;resizeLast=0;collapsible=1;marginBottom=0;swimlaneFillColor=#ffffff;align=center;rounded=1;shadow=0;comic=0;labelBackgroundColor=none;strokeWidth=1;fontFamily=Verdana;fontSize=12" vertex="1" parent="1">
          <mxGeometry x="951" y="670" width="140" height="80" as="geometry" />
        </mxCell>
        <mxCell id="8MBp1-SmucgDKLfqR2da-83" value="&lt;span style=&quot;background-color: initial;&quot;&gt;getAuthSimpleByLoginIdNotDisabled(login_id)&lt;br&gt;&lt;/span&gt;" style="text;strokeColor=none;align=center;fillColor=none;html=1;verticalAlign=middle;whiteSpace=wrap;rounded=0;" vertex="1" parent="8MBp1-SmucgDKLfqR2da-82">
          <mxGeometry y="26" width="140" height="54" as="geometry" />
        </mxCell>
        <mxCell id="8MBp1-SmucgDKLfqR2da-86" style="edgeStyle=orthogonalEdgeStyle;rounded=0;orthogonalLoop=1;jettySize=auto;html=1;exitX=1;exitY=0.5;exitDx=0;exitDy=0;entryX=0.5;entryY=0;entryDx=0;entryDy=0;" edge="1" parent="1" source="8MBp1-SmucgDKLfqR2da-72" target="8MBp1-SmucgDKLfqR2da-82">
          <mxGeometry relative="1" as="geometry" />
        </mxCell>
        <mxCell id="8MBp1-SmucgDKLfqR2da-87" value="association" style="edgeLabel;html=1;align=center;verticalAlign=middle;resizable=0;points=[];" vertex="1" connectable="0" parent="8MBp1-SmucgDKLfqR2da-86">
          <mxGeometry x="-0.3214" y="3" relative="1" as="geometry">
            <mxPoint as="offset" />
          </mxGeometry>
        </mxCell>
        <mxCell id="8MBp1-SmucgDKLfqR2da-88" style="edgeStyle=orthogonalEdgeStyle;rounded=0;orthogonalLoop=1;jettySize=auto;html=1;exitX=0;exitY=0.5;exitDx=0;exitDy=0;entryX=0.5;entryY=0;entryDx=0;entryDy=0;" edge="1" parent="1" source="8MBp1-SmucgDKLfqR2da-70" target="8MBp1-SmucgDKLfqR2da-71">
          <mxGeometry relative="1" as="geometry" />
        </mxCell>
        <mxCell id="8MBp1-SmucgDKLfqR2da-89" value="association" style="edgeLabel;html=1;align=center;verticalAlign=middle;resizable=0;points=[];" vertex="1" connectable="0" parent="8MBp1-SmucgDKLfqR2da-88">
          <mxGeometry x="0.2925" y="2" relative="1" as="geometry">
            <mxPoint as="offset" />
          </mxGeometry>
        </mxCell>
        <mxCell id="8MBp1-SmucgDKLfqR2da-90" value="mon_tpackage" style="swimlane;html=1;fontStyle=0;childLayout=stackLayout;horizontal=1;startSize=26;fillColor=#e0e0e0;horizontalStack=0;resizeParent=1;resizeLast=0;collapsible=1;marginBottom=0;swimlaneFillColor=#ffffff;align=center;rounded=1;shadow=0;comic=0;labelBackgroundColor=none;strokeWidth=1;fontFamily=Verdana;fontSize=12" vertex="1" parent="1">
          <mxGeometry x="1090" y="560" width="140" height="80" as="geometry" />
        </mxCell>
        <mxCell id="8MBp1-SmucgDKLfqR2da-91" value="&lt;span style=&quot;background-color: initial;&quot;&gt;get(tpackage_id)&lt;br&gt;&lt;/span&gt;" style="text;strokeColor=none;align=center;fillColor=none;html=1;verticalAlign=middle;whiteSpace=wrap;rounded=0;" vertex="1" parent="8MBp1-SmucgDKLfqR2da-90">
          <mxGeometry y="26" width="140" height="54" as="geometry" />
        </mxCell>
        <mxCell id="8MBp1-SmucgDKLfqR2da-98" style="edgeStyle=orthogonalEdgeStyle;rounded=0;orthogonalLoop=1;jettySize=auto;html=1;exitX=0.75;exitY=0;exitDx=0;exitDy=0;entryX=0.75;entryY=1;entryDx=0;entryDy=0;" edge="1" parent="1" source="8MBp1-SmucgDKLfqR2da-92" target="8MBp1-SmucgDKLfqR2da-56">
          <mxGeometry relative="1" as="geometry">
            <Array as="points">
              <mxPoint x="1345" y="390" />
              <mxPoint x="800" y="390" />
              <mxPoint x="800" y="280" />
            </Array>
          </mxGeometry>
        </mxCell>
        <mxCell id="8MBp1-SmucgDKLfqR2da-99" value="association" style="edgeLabel;html=1;align=center;verticalAlign=middle;resizable=0;points=[];" vertex="1" connectable="0" parent="8MBp1-SmucgDKLfqR2da-98">
          <mxGeometry x="-0.726" relative="1" as="geometry">
            <mxPoint as="offset" />
          </mxGeometry>
        </mxCell>
        <mxCell id="8MBp1-SmucgDKLfqR2da-92" value="mon_contract" style="swimlane;html=1;fontStyle=0;childLayout=stackLayout;horizontal=1;startSize=26;fillColor=#e0e0e0;horizontalStack=0;resizeParent=1;resizeLast=0;collapsible=1;marginBottom=0;swimlaneFillColor=#ffffff;align=center;rounded=1;shadow=0;comic=0;labelBackgroundColor=none;strokeWidth=1;fontFamily=Verdana;fontSize=12" vertex="1" parent="1">
          <mxGeometry x="1240" y="670" width="140" height="80" as="geometry" />
        </mxCell>
        <mxCell id="8MBp1-SmucgDKLfqR2da-93" value="&lt;span style=&quot;background-color: initial;&quot;&gt;getByTpackageId(contract_id)&lt;br&gt;&lt;/span&gt;" style="text;strokeColor=none;align=center;fillColor=none;html=1;verticalAlign=middle;whiteSpace=wrap;rounded=0;" vertex="1" parent="8MBp1-SmucgDKLfqR2da-92">
          <mxGeometry y="26" width="140" height="54" as="geometry" />
        </mxCell>
        <mxCell id="8MBp1-SmucgDKLfqR2da-96" style="edgeStyle=orthogonalEdgeStyle;rounded=0;orthogonalLoop=1;jettySize=auto;html=1;exitX=1;exitY=0.5;exitDx=0;exitDy=0;" edge="1" parent="1" source="8MBp1-SmucgDKLfqR2da-70" target="8MBp1-SmucgDKLfqR2da-90">
          <mxGeometry relative="1" as="geometry" />
        </mxCell>
        <mxCell id="8MBp1-SmucgDKLfqR2da-97" style="edgeStyle=orthogonalEdgeStyle;rounded=0;orthogonalLoop=1;jettySize=auto;html=1;exitX=1;exitY=0.5;exitDx=0;exitDy=0;entryX=0.5;entryY=0;entryDx=0;entryDy=0;" edge="1" parent="1" source="8MBp1-SmucgDKLfqR2da-91" target="8MBp1-SmucgDKLfqR2da-92">
          <mxGeometry relative="1" as="geometry" />
        </mxCell>
      </root>
    </mxGraphModel>
  </diagram>
</mxfile>
